# xmcd
#
# Track frame offsets:
# 150
# 10320
# 22083
# 38250
# 55200
#
# Disc length: 851 seconds
#
# Revision: 0
# Processed by: cddbd v1.5.2PL0 Copyright (c) Steve Scherf et al.
# Submitted via: Audion 3.0.2 (http://www.panic.com/audion/)
#
DISCID=32035105
DTITLE=Matt Herbert and The Heavy Hitters - Set Your Sails 
DYEAR=1900
DGENRE=
TTITLE0=The Answer
TTITLE1=Shouldnt Be
TTITLE2=Saved Me
TTITLE3=None
TTITLE4=When Im Done
EXTD=
EXTT0=
EXTT1=
EXTT2=
EXTT3=
EXTT4=
PLAYORDER=
